Coordinates
version=1
nRows=16
nColumns=36
inDegrees=yes

Units are S.I. units (second, meters, Newtons, ...)
If the header above contains a line with 'inDegrees', this indicates whether rotational values are in degrees (yes) or radians (no).

endheader
time	pelvis_tilt	pelvis_list	pelvis_rotation	pelvis_tx	pelvis_ty	pelvis_tz	hip_flexion_r	hip_adduction_r	hip_rotation_r	knee_angle_r	knee_angle_r_beta	ankle_angle_r	subtalar_angle_r	mtp_angle_r	hip_flexion_l	hip_adduction_l	hip_rotation_l	knee_angle_l	knee_angle_l_beta	ankle_angle_l	subtalar_angle_l	mtp_angle_l	lumbar_extension	lumbar_bending	lumbar_rotation	arm_flex_r	arm_add_r	arm_rot_r	elbow_flex_r	pro_sup_r	arm_flex_l	arm_add_l	arm_rot_l	elbow_flex_l	pro_sup_l
      6.60000000	    -33.06450058	     -3.84545682	      2.42450161	      0.96604353	      0.50683853	      0.11285077	    107.62345159	    -18.52485767	      0.02120810	    110.97990778	      1.93696479	     36.41763793	      0.15217633	     -7.49999987	    108.89000083	    -18.49022845	      7.62098063	    112.70356356	      1.96704826	     44.12225327	      1.50111852	     -7.49999987	    -20.72844435	      3.71697095	     13.66440657	     80.62281276	    -14.22513741	     80.55199406	    122.83248337	     77.18681308	     82.79978832	      4.79021108	     65.47853899	    113.53931674	     98.82871324
      6.61666670	    -32.89069250	     -3.63872672	      2.40694274	      0.96784526	      0.52442480	      0.11229907	    105.93344754	    -18.53955389	     -0.30372201	    109.36527085	      1.90878406	     36.49741892	      0.43998363	     -7.49999987	    107.04032505	    -18.54302954	      6.75498445	    111.18925675	      1.94061862	     44.24060791	      1.38139692	     -7.49999987	    -20.86050804	      3.50141351	     13.38642230	     80.48723108	    -13.93840541	     80.72834677	    123.12497632	     82.94626868	     81.92238878	      5.24502522	     64.89118400	    114.30461605	    106.64230143
      6.63333330	    -32.82767656	     -3.59186711	      2.28697876	      0.97198476	      0.53496125	      0.11656232	    104.10321689	    -18.35009278	     -0.90411675	    107.52095502	      1.87659468	     36.45715294	      0.65757082	     -7.49999987	    105.13694172	    -18.71847718	      6.09493844	    109.43552105	      1.91001016	     44.36563128	      1.29592009	     -7.49999987	    -20.43890456	      3.35745649	     13.46519587	     79.67860650	    -13.37831450	     80.72819337	    123.17617712	     82.98945081	     81.28464983	      5.20623217	     64.87763565	    114.11891812	    106.62748457
      6.65000000	    -32.28657377	     -3.32146689	      2.17680205	      0.97373855	      0.54418605	      0.11670533	    101.90393262	    -18.12291060	     -1.28660485	    105.73972397	      1.84550633	     36.56303826	      0.95332087	     -7.49999987	    102.60445717	    -18.97454297	      5.20255080	    107.62627717	      1.87843290	     44.49389513	      1.34974382	     -7.49999987	    -20.16354886	      3.09107643	     13.22331416	     78.73134810	    -12.79099078	     80.18394761	    122.93844323	     81.60904764	     81.14178921	      4.55388191	     64.36381362	    114.10050617	    104.44534720
      6.66666670	    -31.64314723	     -3.19196564	      2.06803513	      0.97810053	      0.55211257	      0.12009501	     99.66298211	    -17.89710070	     -1.78253204	    104.10633215	      1.81699827	     36.56700772	      1.24249029	     -7.49999987	    100.18709621	    -19.21070499	      4.55575123	    105.97027505	      1.84953021	     44.51472512	      1.25012213	     -7.49999987	    -19.79263457	      2.89873620	     12.68918925	     78.28572565	    -10.46771758	     79.17432235	    123.90842022	     80.69445684	     80.83305443	      3.67094431	     65.32392633	    116.48899883	    103.06372430
      6.68333330	    -31.19288467	     -2.91073818	      1.94276713	      0.97439728	      0.57363266	      0.11640501	     97.48478994	    -17.70323445	     -2.26309549	    102.03121233	      1.78078060	     36.44258970	      1.52483415	     -7.49999987	     97.75958130	    -19.42541496	      3.54059144	    103.95477887	      1.81435316	     44.29861163	      1.23764925	     -7.49999987	    -20.08008889	      2.65951437	     12.46118566	     78.11885260	    -11.79827765	     78.58783562	    122.40683491	     86.47941838	     80.67760105	      4.11616289	     64.42769110	    114.07368835	    106.83531826
      6.70000000	    -30.70790775	     -2.73136593	      1.80180386	      0.97880755	      0.59632661	      0.12167826	     94.74767030	    -17.43283785	     -2.99784464	     99.33166339	      1.73366458	     36.14310069	      1.70845082	     -7.49999987	     94.86205850	    -19.60158559	      2.51544469	    101.34130942	      1.76873952	     43.90882182	      1.18887667	     -7.49999987	    -20.33903738	      2.42533360	     12.55293541	     76.31914429	    -11.28921884	     77.97310931	    120.60428697	     85.27584042	     79.59872330	      3.14792559	     65.56267231	    114.01790303	    104.05827766
      6.71666670	    -30.19706892	     -2.54822366	      1.59237328	      0.98119980	      0.60369647	      0.12192047	     92.30814293	    -17.07180548	     -3.60215631	     96.93466047	      1.69182898	     35.72278746	      1.96866857	     -7.49999987	     92.11590137	    -19.90620165	      1.54644674	     98.92907017	      1.72663800	     43.44989858	      1.28898669	     -7.49999987	    -19.87530665	      2.08965058	     12.06719429	     75.26423249	     -8.93335215	     76.66834255	    121.70887026	     83.81060835	     79.44054550	      2.83945776	     65.56904401	    115.45722208	    101.73450476
      6.73333330	    -29.20250887	     -2.21085211	      1.46306073	      0.99104252	      0.61638078	      0.12265220	     89.35907010	    -16.85450291	     -4.05433529	     94.58939157	      1.65089632	     35.46588716	      2.18411180	     -7.49999987	     88.65347516	    -20.03496943	      0.45507977	     96.43725583	      1.68314764	     42.97964520	      1.24922207	     -7.49999987	    -19.74323861	      1.82828126	     11.28407369	     73.61240939	     -6.43705829	     76.26883213	    120.59256597	     85.65955760	     78.50041551	      2.15942230	     64.89554684	    116.39345740	    103.05885109
      6.75000000	    -28.60125325	     -2.02797173	      1.29963147	      0.98836404	      0.63811483	      0.12566827	     86.59849187	    -16.53561399	     -4.68302838	     91.86589441	      1.60336233	     34.94137870	      2.25019024	     -7.49999987	     85.56237743	    -20.23922830	     -0.61669206	     93.62256059	      1.63402194	     42.42359756	      1.50621119	     -7.49999987	    -19.66603041	      1.42860411	     11.44429717	     72.29474142	     -6.99850989	     74.28206855	    120.33319606	     90.92938072	     78.09989541	      1.96128356	     66.58368007	    117.10765534	    106.53629524
      6.76666670	    -27.93046699	     -1.82494400	      1.12663697	      0.98687432	      0.65811215	      0.12839184	     83.75623484	    -16.22070302	     -5.36768740	     88.92361324	      1.55200983	     34.15484610	      2.21798762	     -7.49999987	     82.38918588	    -20.48928805	     -1.83768801	     90.57633626	      1.58085529	     41.50956232	      1.71047743	     -7.49999987	    -19.98998439	      1.05961152	     11.37398106	     72.36299008	     -6.63270864	     74.28755873	    120.29332783	     89.17007721	     78.50830707	      1.90985318	     66.27884069	    116.38882655	    103.37778614
      6.78333330	    -27.50090917	     -1.74883731	      0.98131307	      0.99520911	      0.66829647	      0.13237431	     81.18403578	    -15.83721329	     -6.10116755	     86.08432730	      1.50245495	     33.43966548	      2.32391656	     -7.49999987	     79.53036539	    -20.65890523	     -2.82304940	     87.57595672	      1.52848879	     40.45164368	      1.86391039	     -7.49999987	    -18.97057518	      0.78355670	     11.55853661	     70.39209383	     -6.57935578	     75.59482900	    120.01027205	     89.26543266	     77.82775319	      1.56505627	     66.51135086	    116.54981425	    103.45936001
      6.80000000	    -26.32323376	     -1.38183243	      0.79956150	      1.00095848	      0.68388088	      0.13653596	     77.88227309	    -15.44069635	     -6.49821767	     83.24940188	      1.45297616	     32.74656078	      2.17330640	     -7.49999987	     75.62142803	    -20.85696220	     -4.23904695	     84.40316003	      1.47311304	     39.51037743	      2.14856684	     -7.49999987	    -19.07058361	      0.14002990	     10.87350684	     69.39929866	     -4.77646960	     74.05596974	    119.07188912	     93.19453448	     77.42572962	      0.87806690	     66.28743734	    118.27704441	    105.42331067
      6.81666670	    -25.41318820	     -1.10773514	      0.64662981	      1.00352358	      0.70199254	      0.13599661	     74.73171581	    -15.08003334	     -6.99957937	     80.18457500	      1.39948484	     31.89292386	      2.14490174	     -7.49999987	     71.95663993	    -20.89609297	     -5.55141011	     81.06370728	      1.41482860	     38.39284022	      2.46953005	     -7.49999987	    -18.63823997	     -0.30474769	     10.59116923	     67.56575338	     -4.84622589	     75.04892398	    119.31087291	     90.93759348	     76.63549652	      0.72883442	     66.44538553	    118.14751312	    102.76570447
      6.83333330	    -24.25029291	     -0.74932753	      0.43333791	      1.01230894	      0.72303136	      0.13927151	     71.01102535	    -14.66914177	     -7.46371263	     76.64486301	      1.33770521	     30.91138813	      2.06150941	     -7.49999987	     67.64812072	    -20.85520249	     -7.08978508	     77.21549529	      1.34766463	     37.03210000	      2.85288079	     -7.49999987	    -18.61374423	     -0.99144418	     10.51689126	     66.65406568	     -4.49089484	     74.62523512	    118.88671883	     90.00825790	     75.96974314	      0.29411954	     67.95749836	    118.50556978	    101.58807457
      6.85000000	    -23.89950347	     -0.66091800	      0.27139094	      1.01466640	      0.73246335	      0.13966372	     68.38626754	    -14.27840275	     -8.09177770	     73.47144381	      1.28231860	     29.91517136	      2.13810736	     -7.49999987	     64.75484362	    -20.82521503	     -8.17171273	     73.88193077	      1.28948295	     35.55645052	      3.28357024	     -7.49999987	    -17.00347039	     -1.17574715	     10.12502311	     65.05035589	     -3.58973385	     74.56053843	    119.70636217	     90.17343025	     75.49895540	      0.35475584	     67.80316999	    118.79437953	    101.76312447
